<?xml version="1.0" encoding="UTF-8" standalone="no"?>
<svg xmlns:dc="http://purl.org/dc/elements/1.1/" xmlns:cc="http://creativecommons.org/ns#" xmlns:rdf="http://www.w3.org/1999/02/22-rdf-syntax-ns#" xmlns:svg="http://www.w3.org/2000/svg" xmlns="http://www.w3.org/2000/svg" xmlns:sodipodi="http://sodipodi.sourceforge.net/DTD/sodipodi-0.dtd" xmlns:inkscape="http://www.inkscape.org/namespaces/inkscape" width="294pt" height="307pt" viewBox="0 0 294 307" version="1.1" id="svg3386" inkscape:version="0.91 r13725" sodipodi:docname="logo.svg">
  <metadata id="metadata3396"/>
  <defs id="defs3394"/>
  <path fill="#1a94ea" d=" M 152.96 20.08 C 189.60 17.46 226.38 17.50 262.98 14.29 C 267.80 13.79 273.47 14.08 276.62 18.34 C 281.01 23.74 276.97 32.73 270.06 33.24 C 249.08 36.11 227.82 34.35 206.77 36.23 C 202.54 36.65 198.29 36.79 194.04 36.84 C 184.31 37.26 174.63 38.49 164.89 38.86 C 163.84 59.34 163.94 79.87 162.41 100.32 C 164.27 101.41 166.11 103.12 168.43 102.79 C 190.59 100.89 212.82 99.70 234.94 97.27 C 239.84 96.98 245.39 96.26 249.58 99.46 C 251.88 101.84 253.98 105.28 252.57 108.67 C 250.93 112.65 246.41 114.38 242.51 115.26 C 215.44 118.32 188.22 119.36 161.06 121.36 C 159.24 135.50 157.95 149.72 157.16 163.95 C 157.14 169.74 156.27 175.91 158.83 181.31 C 162.68 187.73 170.08 190.71 177.06 192.29 C 191.87 194.85 207.06 194.47 221.93 192.54 C 234.01 191.44 245.82 188.02 257.99 187.78 C 265.12 187.42 272.36 190.86 276.58 196.61 C 278.28 198.82 277.39 201.82 275.26 203.38 C 269.17 207.98 261.21 208.25 253.92 208.93 C 235.07 211.50 216.02 212.34 197.02 211.87 C 179.59 211.71 161.68 208.27 146.56 199.28 C 137.81 194.55 133.74 184.47 132.64 175.05 C 132.41 158.21 135.54 141.58 137.17 124.87 C 134.79 124.92 132.41 124.96 130.04 124.98 C 129.51 161.34 131.96 197.64 132.02 233.99 C 132.26 249.30 130.14 265.89 119.83 277.95 C 108.72 289.80 90.58 293.58 75.26 288.86 C 67.66 285.97 60.41 282.08 53.90 277.17 C 40.26 267.25 28.45 254.52 20.54 239.56 C 17.67 232.55 13.50 225.73 13.10 218.00 C 13.19 209.80 17.40 200.16 26.04 198.01 C 33.07 195.84 42.26 199.59 44.23 207.02 C 43.94 210.25 40.18 211.89 38.55 214.56 C 34.66 218.79 35.57 225.19 38.08 229.89 C 43.06 239.69 49.47 248.91 57.56 256.40 C 64.86 263.83 73.22 270.80 83.30 274.01 C 88.11 274.98 93.69 274.94 97.57 271.51 C 102.84 266.78 105.08 259.68 106.32 252.92 C 108.61 241.76 107.91 230.32 107.79 219.01 C 106.96 197.35 106.95 175.67 106.00 154.01 C 105.56 143.20 105.23 132.39 104.85 121.58 C 94.63 123.42 84.30 124.55 73.96 125.45 C 65.25 126.13 55.97 123.73 49.67 117.43 C 48.17 116.06 47.65 114.05 46.92 112.23 C 49.05 111.01 51.21 109.60 53.72 109.39 C 81.94 107.30 110.19 105.36 138.27 101.68 C 139.82 86.17 139.92 70.58 140.82 55.03 C 140.73 49.70 141.66 44.25 140.34 39.01 C 136.79 38.53 133.21 37.01 130.87 34.22 C 128.32 31.04 128.97 25.54 132.95 23.87 C 139.16 20.93 146.21 20.56 152.96 20.08 Z" id="path3390"/>
</svg>
